<svg width="164" height="164" viewBox="0 0 164 164" fill="none" xmlns="http://www.w3.org/2000/svg">
<path d="M92.07 0C67.3134 0 45.6258 17.5956 40.92 40.92C18.414 40.92 0 59.334 0 81.84C0 89.4102 2.2506 96.3666 5.7288 102.3H51.15L92.07 61.38L132.99 102.3H161.839C163.066 99.0264 163.68 95.7528 163.68 92.07C163.68 78.771 155.087 65.6766 143.22 61.38V51.15C143.22 22.9152 120.305 0 92.07 0ZM92.07 92.07L40.92 143.22H81.84V153.45C81.84 156.163 82.9178 158.765 84.8363 160.684C86.7548 162.602 89.3568 163.68 92.07 163.68C94.7832 163.68 97.3852 162.602 99.3037 160.684C101.222 158.765 102.3 156.163 102.3 153.45V143.22H143.22L92.07 92.07Z" fill="white"/>
</svg>
