<svg width="164" height="164" viewBox="0 0 164 164" fill="none" xmlns="http://www.w3.org/2000/svg">
    <path d="M71.61 0C51.7638 0 33.9636 8.184 21.0738 21.0738L81.84 81.84V0.6138C78.5664 0.2046 75.0882 0 71.61 0ZM102.3 21.6876V91.4562L46.6488 147.107C59.1294 157.337 74.679 163.68 92.07 163.68C131.558 163.68 163.68 131.558 163.68 92.07C163.68 56.0604 136.877 26.8026 102.3 21.6876ZM18.6186 48.4902C7.161 59.5386 0 74.8836 0 92.07C0 111.712 9.4116 128.693 23.7336 139.946L67.3134 96.3666L18.6186 48.4902Z" fill="white"/>
</svg>
