<svg width="164" height="174" viewBox="0 0 164 174" fill="none" xmlns="http://www.w3.org/2000/svg">
    <path d="M81.5139 0C51.5168 0 23.6934 8.69482 0 23.6934L11.5206 41.3004C31.7361 28.4755 55.6469 21.5197 81.5139 21.5197C107.598 21.5197 131.944 28.2582 152.159 41.3004L163.68 23.6934C139.987 8.47745 111.511 0 81.5139 0ZM81.5139 65.2112C64.3417 65.2112 48.9084 70.2107 35.214 78.9055L46.7347 97.1646C56.9511 90.6435 68.4717 86.9482 81.2966 86.9482C94.1214 86.9482 106.512 90.6435 116.728 97.1646L128.249 78.9055C114.772 70.428 98.4688 65.2112 81.2966 65.2112H81.5139ZM81.5139 130.422C69.5586 130.422 59.7769 140.204 59.7769 152.159C59.7769 164.115 69.5586 173.896 81.5139 173.896C93.4693 173.896 103.251 164.115 103.251 152.159C103.251 140.204 93.4693 130.422 81.5139 130.422Z" fill="white"/>
</svg>
