<svg width="192" height="158" viewBox="0 0 192 158" fill="none" xmlns="http://www.w3.org/2000/svg">
    <path d="M177.024 66.4259L0.975586 114.37C2.02406 99.2145 11.4603 83.2968 30.5234 78.6263C24.8998 56.4178 29.6656 35.5437 44.1535 20.3885C60.6431 3.13641 86.9505 -3.72631 109.636 3.32705C130.51 9.71319 145.188 26.87 150.431 50.6989C160.82 53.0818 170.066 58.5148 177.024 66.4259Z" fill="white"/>
    <path opacity="0.4" d="M174.071 143.151C164.158 152.206 151.195 157.258 137.66 157.258H38.7226C12.6061 155.351 0.882324 135.24 0.882324 117.32C0.882324 116.367 0.882324 115.414 0.97764 114.366L177.025 66.4219C182.458 72.2361 186.557 79.3848 189.035 87.5819C195.326 108.265 189.607 129.521 174.071 143.151Z" fill="white"/>
</svg>
