<svg width="79" height="87" viewBox="0 0 79 87" fill="none" xmlns="http://www.w3.org/2000/svg">
    <path d="M79 12.4286V20.1964C79 27.0419 61.3074 32.625 39.5 32.625C17.6927 32.625 0 27.0419 0 20.1964V12.4286C0 5.58312 17.6927 0 39.5 0C61.3074 0 79 5.58312 79 12.4286ZM79 29.9062V47.3839C79 54.2294 61.3074 59.8125 39.5 59.8125C17.6927 59.8125 0 54.2294 0 47.3839V29.9062C8.48633 35.538 24.0188 38.1597 39.5 38.1597C54.9812 38.1597 70.5135 35.538 79 29.9062ZM79 57.0938V74.5714C79 81.4169 61.3074 87 39.5 87C17.6927 87 0 81.4169 0 74.5714V57.0938C8.48633 62.7255 24.0188 65.3472 39.5 65.3472C54.9812 65.3472 70.5135 62.7255 79 57.0938Z" fill="white"/>
</svg>
