<svg width="171" height="173" viewBox="0 0 171 173" fill="none" xmlns="http://www.w3.org/2000/svg">
    <g clip-path="url(#clip0_437_15)">
        <path d="M157.782 56.5384C165.07 56.5384 171 50.5393 171 43.1656V21.4983C171 14.1246 165.07 8.12549 157.782 8.12549H13.2182C5.92978 8.12549 0 14.1246 0 21.4983V43.1656C0 50.5393 5.92978 56.5384 13.2182 56.5384H82.9902V62.2938H13.2182C5.92978 62.2938 0 68.2929 0 75.6666V97.3339C0 104.708 5.92978 110.707 13.2182 110.707H82.9902V116.462H13.2182C5.92978 116.462 0 122.461 0 129.835V151.502C0 158.876 5.92978 164.875 13.2182 164.875H157.782C165.07 164.875 171 158.876 171 151.502V129.835C171 122.461 165.07 116.462 157.782 116.462H88.0098V110.707H157.782C165.07 110.707 171 104.708 171 97.3339V75.6666C171 68.2929 165.07 62.2938 157.782 62.2938H88.0098V56.5384H157.782ZM165.98 129.835V151.502C165.98 156.076 162.302 159.797 157.782 159.797H13.2182C8.69758 159.797 5.01957 156.076 5.01957 151.502V129.835C5.01957 125.261 8.69758 121.54 13.2182 121.54H157.782C162.302 121.54 165.98 125.261 165.98 129.835ZM165.98 75.6666V97.3339C165.98 101.908 162.302 105.628 157.782 105.628H13.2182C8.69758 105.628 5.01957 101.908 5.01957 97.3339V75.6666C5.01957 71.0927 8.69758 67.3721 13.2182 67.3721H157.782C162.302 67.3721 165.98 71.0927 165.98 75.6666ZM5.01957 43.1656V21.4983C5.01957 16.9245 8.69758 13.2038 13.2182 13.2038H157.782C162.302 13.2038 165.98 16.9245 165.98 21.4983V43.1656C165.98 47.7394 162.302 51.4601 157.782 51.4601H13.2182C8.69758 51.4601 5.01957 47.7394 5.01957 43.1656Z" fill="white"/>
        <path d="M23.9268 21.6675C18.1145 21.6675 13.3857 26.4516 13.3857 32.3319C13.3857 38.2122 18.1145 42.9962 23.9268 42.9962C29.7392 42.9962 34.4679 38.2122 34.4679 32.3319C34.4679 26.4516 29.7392 21.6675 23.9268 21.6675ZM23.9268 37.918C20.8823 37.918 18.4053 35.412 18.4053 32.3319C18.4053 29.2517 20.8823 26.7458 23.9268 26.7458C26.9714 26.7458 29.4484 29.2517 29.4484 32.3319C29.4484 35.412 26.9714 37.918 23.9268 37.918Z" fill="white"/>
        <path d="M48.0207 24.376C43.6845 24.376 40.1567 27.945 40.1567 32.3319C40.1567 36.7189 43.6845 40.2879 48.0207 40.2879C52.357 40.2879 55.8847 36.7189 55.8847 32.3319C55.8847 27.945 52.357 24.376 48.0207 24.376ZM48.0207 35.2096C46.4523 35.2096 45.1763 33.9187 45.1763 32.3319C45.1763 30.7452 46.4523 29.4543 48.0207 29.4543C49.5892 29.4543 50.8652 30.7452 50.8652 32.3319C50.8652 33.9187 49.5892 35.2096 48.0207 35.2096Z" fill="white"/>
        <path d="M23.9268 75.8359C18.1145 75.8359 13.3857 80.62 13.3857 86.5003C13.3857 92.3806 18.1145 97.1647 23.9268 97.1647C29.7392 97.1647 34.4679 92.3806 34.4679 86.5003C34.4679 80.62 29.7392 75.8359 23.9268 75.8359ZM23.9268 92.0864C20.8823 92.0864 18.4053 89.5805 18.4053 86.5003C18.4053 83.4202 20.8823 80.9142 23.9268 80.9142C26.9714 80.9142 29.4484 83.4202 29.4484 86.5003C29.4484 89.5805 26.9714 92.0864 23.9268 92.0864Z" fill="white"/>
        <path d="M48.0207 78.5444C43.6845 78.5444 40.1567 82.1134 40.1567 86.5004C40.1567 90.8874 43.6845 94.4564 48.0207 94.4564C52.357 94.4564 55.8847 90.8874 55.8847 86.5004C55.8847 82.1134 52.357 78.5444 48.0207 78.5444ZM48.0207 89.3781C46.4523 89.3781 45.1763 88.0872 45.1763 86.5004C45.1763 84.9136 46.4523 83.6227 48.0207 83.6227C49.5892 83.6227 50.8652 84.9136 50.8652 86.5004C50.8652 88.0872 49.5892 89.3781 48.0207 89.3781Z" fill="white"/>
        <path d="M152.427 89.3779H64.083C62.697 89.3779 61.5732 90.5144 61.5732 91.9171C61.5732 93.3197 62.697 94.4562 64.083 94.4562H152.427C153.814 94.4562 154.937 93.3197 154.937 91.9171C154.937 90.5144 153.814 89.3779 152.427 89.3779Z" fill="white"/>
        <path d="M61.5732 81.0836C61.5732 82.4862 62.697 83.6227 64.083 83.6227H152.427C153.814 83.6227 154.937 82.4862 154.937 81.0836C154.937 79.681 153.814 78.5444 152.427 78.5444H64.083C62.697 78.5444 61.5732 79.681 61.5732 81.0836Z" fill="white"/>
        <path d="M154.937 37.7486C154.937 36.346 153.814 35.2095 152.427 35.2095H64.083C62.697 35.2095 61.5732 36.346 61.5732 37.7486C61.5732 39.1512 62.697 40.2878 64.083 40.2878H152.427C153.814 40.2878 154.937 39.1512 154.937 37.7486Z" fill="white"/>
        <path d="M64.083 29.4543H152.427C153.814 29.4543 154.937 28.3177 154.937 26.9151C154.937 25.5125 153.814 24.376 152.427 24.376H64.083C62.697 24.376 61.5732 25.5125 61.5732 26.9151C61.5732 28.3177 62.697 29.4543 64.083 29.4543Z" fill="white"/>
        <path d="M23.9268 130.004C18.1145 130.004 13.3857 134.788 13.3857 140.669C13.3857 146.549 18.1145 151.333 23.9268 151.333C29.7392 151.333 34.4679 146.549 34.4679 140.669C34.4679 134.788 29.7392 130.004 23.9268 130.004ZM23.9268 146.255C20.8823 146.255 18.4053 143.749 18.4053 140.669C18.4053 137.589 20.8823 135.083 23.9268 135.083C26.9714 135.083 29.4484 137.589 29.4484 140.669C29.4484 143.749 26.9714 146.255 23.9268 146.255Z" fill="white"/>
        <path d="M48.0207 132.712C43.6845 132.712 40.1567 136.281 40.1567 140.668C40.1567 145.055 43.6845 148.624 48.0207 148.624C52.357 148.624 55.8847 145.055 55.8847 140.668C55.8847 136.281 52.357 132.712 48.0207 132.712ZM48.0207 143.546C46.4523 143.546 45.1763 142.255 45.1763 140.668C45.1763 139.082 46.4523 137.791 48.0207 137.791C49.5892 137.791 50.8652 139.082 50.8652 140.668C50.8652 142.255 49.5892 143.546 48.0207 143.546Z" fill="white"/>
        <path d="M152.427 143.546H64.083C62.697 143.546 61.5732 144.683 61.5732 146.086C61.5732 147.488 62.697 148.625 64.083 148.625H152.427C153.814 148.625 154.937 147.488 154.937 146.086C154.937 144.683 153.814 143.546 152.427 143.546Z" fill="white"/>
        <path d="M61.5732 135.252C61.5732 136.654 62.697 137.791 64.083 137.791H152.427C153.814 137.791 154.937 136.654 154.937 135.252C154.937 133.849 153.814 132.712 152.427 132.712H64.083C62.697 132.712 61.5732 133.849 61.5732 135.252Z" fill="white"/>
    </g>
    <defs>
        <clipPath id="clip0_437_15">
            <rect width="171" height="173" fill="white"/>
        </clipPath>
    </defs>
</svg>
