<svg width="179" height="171" viewBox="0 0 179 171" fill="none" xmlns="http://www.w3.org/2000/svg">
    <path d="M89.4155 116.937C72.1976 116.937 58.2236 102.842 58.2236 85.4755C58.2236 68.1086 72.1976 54.0137 89.4155 54.0137C106.633 54.0137 120.607 68.1086 120.607 85.4755C120.607 102.842 106.633 116.937 89.4155 116.937ZM89.4155 66.5984C79.1014 66.5984 70.7004 75.0721 70.7004 85.4755C70.7004 95.8788 79.1014 104.353 89.4155 104.353C99.7297 104.353 108.131 95.8788 108.131 85.4755C108.131 75.0721 99.7297 66.5984 89.4155 66.5984Z" fill="white"/>
    <path d="M116.117 170.966C114.37 170.966 112.624 170.714 110.877 170.295C105.72 168.868 101.395 165.596 98.6496 160.982L97.6515 159.304C92.744 150.746 86.0065 150.746 81.099 159.304L80.184 160.898C77.4391 165.596 73.1138 168.952 67.9568 170.295C62.7165 171.721 57.3099 170.966 52.7351 168.197L38.4284 159.891C33.3546 156.955 29.6947 152.173 28.1143 146.384C26.6171 140.595 27.3657 134.638 30.2769 129.52C32.6891 125.241 33.3546 121.382 31.9405 118.949C30.5265 116.516 26.9498 115.09 22.0423 115.09C9.89823 115.09 0 105.106 0 92.8566V78.0906C0 65.8414 9.89823 55.8576 22.0423 55.8576C26.9498 55.8576 30.5265 54.4313 31.9405 51.9983C33.3546 49.5652 32.7723 45.7059 30.2769 41.4271C27.3657 36.3093 26.6171 30.2686 28.1143 24.5636C29.6115 18.7746 33.2714 13.9924 38.4284 11.056L52.8183 2.75007C62.2175 -2.87111 74.6111 0.400919 80.2672 10.0492L81.2653 11.7272C86.1729 20.2848 92.9103 20.2848 97.8178 11.7272L98.7328 10.1331C104.389 0.400919 116.783 -2.87111 126.265 2.83396L140.572 11.1399C145.645 14.0763 149.305 18.8585 150.886 24.6475C152.383 30.4364 151.634 36.3932 148.723 41.511C146.311 45.7898 145.645 49.6491 147.059 52.0822C148.474 54.5152 152.05 55.9415 156.958 55.9415C169.102 55.9415 179 65.9253 179 78.1745V92.9405C179 105.19 169.102 115.174 156.958 115.174C152.05 115.174 148.474 116.6 147.059 119.033C145.645 121.466 146.228 125.325 148.723 129.604C151.634 134.722 152.466 140.762 150.886 146.468C149.388 152.257 145.729 157.039 140.572 159.975L126.182 168.281C123.021 170.043 119.611 170.966 116.117 170.966ZM89.4168 139.923C96.8197 139.923 103.724 144.622 108.465 152.928L109.38 154.522C110.378 156.284 112.041 157.542 114.038 158.045C116.034 158.549 118.03 158.297 119.694 157.29L134.084 148.901C136.246 147.642 137.91 145.545 138.575 143.028C139.241 140.511 138.908 137.91 137.66 135.729C132.919 127.507 132.337 119.033 135.997 112.573C139.657 106.113 147.226 102.421 156.708 102.421C162.032 102.421 166.274 98.1422 166.274 92.7727V78.0067C166.274 72.7211 162.032 68.3584 156.708 68.3584C147.226 68.3584 139.657 64.6669 135.997 58.2067C132.337 51.7466 132.919 43.2729 137.66 35.0508C138.908 32.8695 139.241 30.2686 138.575 27.7517C137.91 25.2348 136.329 23.2212 134.167 21.8788L119.777 13.5729C116.2 11.3916 111.459 12.65 109.296 16.3416L108.381 17.9356C103.64 26.2415 96.7365 30.9398 89.3336 30.9398C81.9308 30.9398 75.0269 26.2415 70.2858 17.9356L69.3708 16.2577C67.2914 12.7339 62.6334 11.4755 59.0567 13.5729L44.6668 21.9627C42.5042 23.2212 40.8406 25.3187 40.1752 27.8356C39.5098 30.3525 39.8425 32.9534 41.0901 35.1347C45.8313 43.3568 46.4136 51.8305 42.7537 58.2906C39.0939 64.7508 31.5246 68.4423 22.0423 68.4423C16.7189 68.4423 12.4768 72.7211 12.4768 78.0906V92.8566C12.4768 98.1422 16.7189 102.505 22.0423 102.505C31.5246 102.505 39.0939 106.196 42.7537 112.657C46.4136 119.117 45.8313 127.59 41.0901 135.812C39.8425 137.994 39.5098 140.595 40.1752 143.112C40.8406 145.629 42.421 147.642 44.5836 148.984L58.9735 157.29C60.7203 158.381 62.7997 158.633 64.7128 158.129C66.7091 157.626 68.3727 156.284 69.454 154.522L70.369 152.928C75.1101 144.706 82.0139 139.923 89.4168 139.923Z" fill="white"/>
</svg>
