<svg width="126" height="121" viewBox="0 0 126 121" fill="none" xmlns="http://www.w3.org/2000/svg">
    <path d="M125.997 68.2751C125.879 72.3943 122.252 75.6249 117.961 75.6249H104.344V79.4062C104.344 84.5733 103.142 89.47 100.997 93.8565L115.819 108.09C118.894 111.043 118.894 115.832 115.819 118.785C112.743 121.738 107.757 121.738 104.681 118.785L91.2111 105.849C85.1203 110.593 77.3597 113.437 68.9061 113.437V55.7734C68.9061 54.2073 67.5839 52.9375 65.953 52.9375H60.0468C58.4159 52.9375 57.0936 54.2073 57.0936 55.7734V113.437C48.6401 113.437 40.8795 110.593 34.7887 105.849L21.3185 118.785C18.2428 121.738 13.2567 121.738 10.1812 118.785C7.10606 115.832 7.10606 111.043 10.1812 108.09L25.003 93.8565C22.8575 89.47 21.6561 84.5733 21.6561 79.4062V75.6249H8.03875C3.74786 75.6249 0.120683 72.3943 0.00305057 68.2751C-0.119258 64.0014 3.45206 60.5 7.87486 60.5H21.6561V46.6169L10.1812 35.5974C7.10606 32.644 7.10606 27.8557 10.1812 24.9023C13.2569 21.949 18.2428 21.949 21.3185 24.9023L34.7618 37.8125H91.2377L104.681 24.9026C107.757 21.9492 112.743 21.9492 115.818 24.9026C118.893 27.856 118.893 32.6442 115.818 35.5976L104.344 46.6169V60.5H118.125C122.548 60.5 126.119 64.0014 125.997 68.2751ZM63.246 0C48.0236 0 35.6835 11.8504 35.6835 26.4687H90.8085C90.8085 11.8504 78.4684 0 63.246 0Z" fill="white"/>
</svg>
