<svg xmlns="http://www.w3.org/2000/svg" width="127" height="135" viewBox="0 0 127 135" fill="none">
    <path d="M118.388 21.9891L67.9317 0.965777C66.3948 0.328189 64.7472 0 63.0832 0C61.4193 0 59.7717 0.328189 58.2347 0.965777L7.77864 21.9891C3.07467 23.9338 0 28.5327 0 33.6308C0 85.795 30.0897 121.85 58.2084 133.571C61.3094 134.858 64.8045 134.858 67.9055 133.571C90.4267 124.189 126.14 91.7867 126.14 33.6308C126.14 28.5327 123.066 23.9338 118.388 21.9891ZM63.0964 117.278L63.0701 17.1538L109.295 36.4164C108.428 76.2031 87.72 105.031 63.0964 117.278Z" fill="white"/>
</svg>