<svg width="127" height="127" viewBox="0 0 127 127" fill="none" xmlns="http://www.w3.org/2000/svg">
    <path d="M124.425 109.075L99.8601 84.5102C98.7513 83.4015 97.2484 82.7855 95.6715 82.7855H91.6554C98.4557 74.0881 102.496 63.1486 102.496 51.2482C102.496 22.9385 79.5579 0 51.2482 0C22.9385 0 0 22.9385 0 51.2482C0 79.5579 22.9385 102.496 51.2482 102.496C63.1486 102.496 74.0881 98.4557 82.7855 91.6554V95.6715C82.7855 97.2484 83.4015 98.7513 84.5102 99.8601L109.075 124.425C111.391 126.741 115.136 126.741 117.427 124.425L124.4 117.452C126.716 115.136 126.716 111.391 124.425 109.075ZM51.2482 82.7855C33.8287 82.7855 19.7108 68.6923 19.7108 51.2482C19.7108 33.8287 33.8041 19.7108 51.2482 19.7108C68.6676 19.7108 82.7855 33.8041 82.7855 51.2482C82.7855 68.6676 68.6923 82.7855 51.2482 82.7855Z" fill="white"/>
</svg>
