<svg xmlns="http://www.w3.org/2000/svg" width="95" height="72" viewBox="0 0 95 72" fill="none">
    <path d="M41.323 71.9299L32.2858 69.4406C31.3376 69.1875 30.8043 68.2452 31.071 67.3452L51.2936 1.2183C51.5603 0.318234 52.5529 -0.188054 53.501 0.0650898L62.5382 2.55434C63.4864 2.80748 64.0198 3.74974 63.7531 4.64981L43.5305 70.7767C43.249 71.6767 42.2712 72.1971 41.323 71.9299ZM24.4338 56.1506L30.8784 49.6251C31.5599 48.936 31.5154 47.839 30.7599 47.2061L17.3374 35.9975L30.7599 24.7888C31.5154 24.156 31.5747 23.059 30.8784 22.3699L24.4338 15.8444C23.7671 15.1693 22.6412 15.1272 21.9152 15.7741L0.566678 34.7599C-0.188893 35.4209 -0.188893 36.56 0.566678 37.221L21.9152 56.2209C22.6412 56.8678 23.7671 56.8397 24.4338 56.1506ZM72.9088 56.2349L94.2574 37.2351C95.013 36.5741 95.013 35.4349 94.2574 34.774L72.9088 15.76C72.1977 15.1272 71.0718 15.1553 70.3903 15.8303L63.9457 22.3558C63.2642 23.0449 63.3086 24.1419 64.0642 24.7748L77.4867 35.9975L64.0642 47.2061C63.3086 47.839 63.2494 48.936 63.9457 49.6251L70.3903 56.1506C71.0569 56.8397 72.1829 56.8678 72.9088 56.2349Z" fill="white"/>
</svg>