<svg xmlns="http://www.w3.org/2000/svg" width="100" height="125" viewBox="0 0 100 125" fill="none">
    <path d="M72.7936 76.0112C75.3897 74.3837 78.9925 72.9747 78.9925 72.9747C78.9925 72.9747 68.7404 74.6752 58.5413 75.4525C46.064 76.3999 32.6595 76.5943 25.9307 75.7683C10.0095 73.8249 34.6728 68.4563 34.6728 68.4563C34.6728 68.4563 25.1095 67.8733 13.3209 73.0719C-0.586951 79.2421 47.7594 82.0601 72.7936 76.0112ZM50.1701 68.2133C45.1368 57.8405 28.156 48.7308 50.1701 32.7949C77.6309 12.9236 63.5482 0 63.5482 0C69.2438 20.5272 43.5208 26.746 34.2224 39.4996C27.8911 48.2206 37.3219 57.5732 50.1701 68.2133ZM80.529 25.41C80.5555 25.41 34.1165 36.0501 56.2896 59.4681C62.8329 66.3671 54.5677 72.586 54.5677 72.586C54.5677 72.586 71.1776 64.7152 63.5482 54.8768C56.422 45.6942 50.9649 41.1272 80.529 25.41ZM78.913 91.1212C78.7683 91.3527 78.59 91.5651 78.3832 91.7528C112.371 83.5662 99.8675 62.869 83.6285 68.1162C82.7514 68.4117 81.9936 68.9456 81.4562 69.6466C82.4045 69.3319 83.379 69.0882 84.3702 68.9178C92.5825 67.3388 104.371 78.9992 78.913 91.1212ZM91.4063 106.255C91.4063 106.255 95.2475 109.146 87.1942 111.405C71.8558 115.657 23.4034 116.944 9.94594 111.575C5.09805 109.656 14.1845 106.96 17.0456 106.401C20.0126 105.818 21.7345 105.915 21.7345 105.915C16.3568 102.441 -13.0484 112.742 6.79349 115.681C60.899 123.746 105.447 112.061 91.4063 106.255ZM32.1826 96.1983C11.3341 101.543 44.8719 112.571 71.416 102.15C68.8272 101.228 66.3282 100.106 63.9455 98.7976C52.104 100.862 46.6203 101.008 35.8649 99.8908C26.9904 98.9677 32.1826 96.1983 32.1826 96.1983ZM79.8137 119.811C58.9652 123.406 33.2423 122.993 18.0098 120.685C18.0098 120.661 21.1358 123.042 37.1894 123.989C61.6143 125.422 99.1258 123.187 100 112.596C100 112.596 98.3046 116.604 79.8137 119.811ZM68.2636 85.7525C52.5808 88.5219 43.4943 88.449 32.0237 87.3559C23.1491 86.5056 28.9507 82.5702 28.9507 82.5702C5.95636 89.5665 41.7194 97.4858 73.8532 88.862C71.7764 88.1895 69.8734 87.1309 68.2636 85.7525Z" fill="white"/>
</svg>