<svg width="100" height="90" viewBox="0 0 100 90" fill="none" xmlns="http://www.w3.org/2000/svg">
    <path d="M89.2857 0H10.7143C4.79911 0 0 4.30537 0 9.61199V80.0999C0 85.4065 4.79911 89.7119 10.7143 89.7119H89.2857C95.2009 89.7119 100 85.4065 100 80.0999V9.61199C100 4.30537 95.2009 0 89.2857 0ZM54.4196 69.9673C54.4196 78.6982 48.7054 82.6831 40.3795 82.6831C32.8571 82.6831 28.5045 79.1988 26.2723 74.9735L33.9286 70.8283C35.4018 73.1713 36.7411 75.1537 39.9777 75.1537C43.058 75.1537 45.0223 74.0724 45.0223 69.8471V41.1914H54.4196V69.9673ZM76.6518 82.6831C67.9241 82.6831 62.2768 78.9585 59.5313 74.0724L67.1875 70.1074C69.1964 73.0511 71.8304 75.2338 76.4509 75.2338C80.3348 75.2338 82.8348 73.4917 82.8348 71.0686C82.8348 68.1851 80.2902 67.1638 75.9821 65.4616L73.6384 64.5605C66.8527 61.9773 62.3661 58.7132 62.3661 51.8447C62.3661 45.5168 67.7455 40.7108 76.1161 40.7108C82.0982 40.7108 86.3839 42.5731 89.4643 47.4592L82.1429 51.6644C80.5357 49.0812 78.7946 48.0599 76.0938 48.0599C73.3482 48.0599 71.6071 49.6219 71.6071 51.6644C71.6071 54.1876 73.3482 55.2089 77.3884 56.7908L79.7321 57.692C87.7232 60.7558 92.2098 63.8997 92.2098 70.9485C92.2098 78.5179 85.558 82.6831 76.6518 82.6831Z" fill="white"/>
</svg>
