<svg xmlns="http://www.w3.org/2000/svg" width="127" height="145" viewBox="0 0 127 145" fill="none">
    <path d="M108.092 86.8017L114.821 69.1759C115.948 66.2195 113.78 63.066 110.598 63.066H94.1265C97.2237 57.7444 99.1383 51.6345 99.1383 45.046V44.9615C110.176 42.7653 117.158 39.5836 117.158 36.0359C117.158 32.2912 109.472 28.9687 97.4208 26.7444C94.8304 17.5091 89.8186 8.21753 85.9893 3.43096C83.3145 0.0803646 78.6968 -0.961418 74.8676 0.953209L67.0964 4.83878C64.5624 6.10581 61.5778 6.10581 59.0437 4.83878L51.2726 0.953209C47.4433 -0.961418 42.8257 0.0803646 40.1509 3.43096C36.3498 8.21753 31.3098 17.5091 28.7194 26.7444C16.6967 28.9687 9.01001 32.2912 9.01001 36.0359C9.01001 39.5836 15.9928 42.7653 27.03 44.9615V45.046C27.03 51.6345 28.9447 57.7444 32.0419 63.066H15.852C12.614 63.066 10.446 66.3603 11.713 69.3448L18.9773 86.2949C7.68667 92.8553 0 104.934 0 118.928V131.542C0 138.497 5.65941 144.156 12.614 144.156H113.526C120.481 144.156 126.14 138.497 126.14 131.542V118.928C126.14 105.3 118.876 93.4748 108.092 86.8017ZM49.5551 135.146L37.8421 81.086L51.8076 90.096L58.5651 101.359L49.5551 135.146ZM76.5851 135.146L67.5751 101.359L74.3326 90.096L88.2981 81.086L76.5851 135.146ZM88.3263 51.0996C87.2282 54.4502 86.3553 58.026 83.6805 60.5038C80.8367 63.1223 70.1655 66.8108 65.6605 53.4647C64.8721 51.0996 61.3244 51.0996 60.5079 53.4647C55.7213 67.5991 44.7403 62.5873 42.4878 60.5038C39.813 58.026 38.912 54.4502 37.8421 51.0996C37.6168 50.3956 36.0682 49.4946 36.0682 49.4665V46.4256C44.0364 47.4392 53.2435 48.0587 63.0982 48.0587C72.9529 48.0587 82.1601 47.4674 90.1283 46.4256V49.4665C90.1001 49.4946 88.5515 50.3675 88.3263 51.0996Z" fill="white"/>
</svg>