<svg width="116" height="103" viewBox="0 0 116 103" fill="none" xmlns="http://www.w3.org/2000/svg">
<path d="M17.4 39.8566V66.2315C17.4 69.7391 13.7448 72.5406 9.09271 72.5406C4.47083 72.5406 0 69.7163 0 66.2315V39.8566C0 36.4173 4.47083 33.5931 9.09271 33.5931C13.6542 33.5931 17.4 36.4173 17.4 39.8566ZM20.6625 75.6154C20.6625 79.3507 24.65 82.3572 29.6042 82.3572H35.6156L35.7062 96.2735C35.7062 104.678 52.3812 104.61 52.3812 96.2735V82.3572H63.6188V96.2735C63.6188 104.632 80.3844 104.655 80.3844 96.2735V82.3572H86.4865C91.3802 82.3572 95.3677 79.3507 95.3677 75.6154V34.7547H20.6625V75.6154ZM95.5792 32.5454H20.3302C20.3302 22.7971 28.0635 14.3243 39.5427 9.90569L33.7729 1.86564C32.9271 0.749604 35.0719 0.0435382 35.7969 1.00014L41.6573 9.10851C52.2 5.57818 64.3136 5.7604 74.3729 9.10851L80.2031 1.02292C80.9583 0.0435377 83.0729 0.77238 82.2271 1.88842L76.4573 9.90569C87.8458 14.3243 95.5792 22.7971 95.5792 32.5454ZM44.0135 19.9045C44.0135 18.6062 42.624 17.513 40.8417 17.513C39.1198 17.513 37.7604 18.6062 37.7604 19.9045C37.7604 21.2027 39.15 22.296 40.8417 22.296C42.624 22.296 44.0135 21.2027 44.0135 19.9045ZM78.2698 19.9045C78.2698 18.6062 76.8802 17.513 75.1885 17.513C73.4062 17.513 72.0167 18.6062 72.0167 19.9045C72.0167 21.2027 73.4062 22.296 75.1885 22.296C76.8802 22.296 78.2698 21.2027 78.2698 19.9045ZM106.907 33.5931C102.346 33.5931 98.6 36.349 98.6 39.8566V66.2315C98.6 69.7391 102.346 72.5406 106.907 72.5406C111.559 72.5406 116 69.7163 116 66.2315V39.8566C116 36.349 111.529 33.5931 106.907 33.5931Z" fill="white"/>
</svg>
