<svg width="153" height="138" viewBox="0 0 153 138" fill="none" xmlns="http://www.w3.org/2000/svg">
<path d="M41.7273 0C18.7235 0 0 16.8879 0 37.6364V100.364C0 121.112 18.7235 138 41.7273 138H111.273C134.277 138 153 121.112 153 100.364V37.6364C153 16.8879 134.277 0 111.273 0H41.7273ZM41.7273 6.27273H111.273C130.518 6.27273 146.045 20.2781 146.045 37.6364V100.364C146.045 117.722 130.518 131.727 111.273 131.727H41.7273C22.4822 131.727 6.95455 117.722 6.95455 100.364V37.6364C6.95455 20.2781 22.4822 6.27273 41.7273 6.27273ZM29.9575 47.2537C27.513 47.2537 25.7128 48.8255 25.7128 50.8924C25.7128 52.931 27.513 54.5004 29.9575 54.5004C32.402 54.5004 34.209 52.931 34.209 50.8924C34.209 48.8255 32.402 47.2537 29.9575 47.2537ZM66.1972 49.0424C53.5434 49.0424 45.5985 57.0356 45.5985 69.8821C45.5985 82.7004 53.3904 90.7463 66.1972 90.7463C78.9727 90.7463 86.7349 82.6722 86.7349 69.8821C86.7349 57.0638 78.9101 49.0456 66.1972 49.0424ZM111.157 49.0424C101.532 49.0424 95.1088 53.7555 95.1088 60.8406C95.1088 66.6836 98.7455 70.1612 106.722 71.8423L112.407 73.0859C118.245 74.3247 120.815 76.1419 120.815 79.1748C120.815 82.7032 116.781 85.2638 111.28 85.2638C105.385 85.2638 101.289 82.8679 100.705 79.0952H93.9135C94.4038 86.2084 100.972 90.7524 110.75 90.7524C121.202 90.7524 127.742 85.9873 127.742 78.3785C127.742 72.3974 124.015 69.0874 114.967 67.1868L110.111 66.1087C104.367 64.8949 102.043 63.2685 102.043 60.4301C102.043 56.8453 105.652 54.5066 111.062 54.5066C116.198 54.5066 119.737 56.7882 120.38 60.4546H127.043C126.646 53.7554 120.111 49.0424 111.157 49.0424ZM66.1972 54.8006C74.574 54.8006 79.7396 60.6486 79.7396 69.8821C79.7396 79.0591 74.5705 84.9881 66.1972 84.9881C57.7335 84.9881 52.6005 79.0622 52.6005 69.8821C52.6005 60.6486 57.8831 54.8037 66.1972 54.8006ZM26.6908 59.7686V89.7845H33.231V59.7686H26.6908Z" fill="white"/>
</svg>
