<svg width="150" height="121" viewBox="0 0 150 121" fill="none" xmlns="http://www.w3.org/2000/svg">
<path d="M73.8297 29.1371C74.1844 29.2553 74.4682 29.5388 74.8939 29.5388C75.2841 29.5388 75.8871 29.4443 75.9226 29.1844C75.9936 28.8535 75.2486 28.6409 74.7875 28.4991C74.1844 28.3337 73.404 28.2628 72.8364 28.4754C72.6945 28.5227 72.5526 28.6409 72.6236 28.7354C72.73 29.0426 73.4395 28.9953 73.8297 29.1371ZM66.0609 29.5388C66.4866 29.5388 66.7704 29.2553 67.1252 29.1371C67.5154 28.9953 68.2248 29.0426 68.3667 28.759C68.4377 28.6645 68.2958 28.5463 68.1539 28.4991C67.5863 28.2864 66.8059 28.3573 66.2028 28.5227C65.7417 28.6645 64.9967 28.8772 65.0677 29.208C65.1032 29.4443 65.7062 29.5625 66.0609 29.5388ZM144.493 95.4216C143.216 94.4764 142.613 92.6805 141.939 90.7663C141.301 88.8523 140.556 86.7964 138.214 85.473C137.753 85.2131 137.292 84.9768 136.795 84.7877C136.334 84.5987 135.838 84.4333 135.341 84.3151C138.605 77.8639 137.327 71.4363 134.028 65.6231C129.984 58.5102 122.925 52.2953 117.533 48.0418C111.467 42.9611 105.579 38.1405 105.685 31.0276C105.862 20.181 107.494 0.0238986 78.796 0.000267715C42.471 -0.046994 51.5522 24.4346 51.162 31.9492C50.559 37.4788 48.8917 41.8269 43.1804 47.2383C36.4759 52.5553 27.0399 61.1333 22.5703 70.0894C20.4418 74.3193 19.4486 78.6201 20.3709 82.6846C18.0651 84.0552 16.3269 86.1583 14.4823 87.458C12.9924 88.4742 10.8285 88.8522 8.45175 89.4194C6.07501 89.9865 3.48544 90.8372 1.88912 92.8459C1.14418 93.7675 0.895862 94.76 0.895862 95.7761C0.895862 96.6977 1.1087 97.6429 1.32155 98.5645C1.74723 100.479 2.20839 102.275 1.60534 103.48C-0.239294 106.883 -0.48761 109.246 0.824915 110.971C2.17291 112.696 4.86891 113.452 7.95512 113.877C14.0921 114.728 22.4284 114.515 28.991 116.831C36.0148 119.289 43.145 120.163 48.8208 119.289C52.9357 118.674 56.3057 117.02 58.0084 114.515C62.4426 114.492 67.338 113.239 75.1422 112.956C80.4278 112.672 87.0613 114.208 94.6882 113.925C94.901 114.468 95.1848 115.012 95.575 115.508V115.531C98.5193 119.478 104.018 121.274 109.871 120.967C115.76 120.659 121.967 118.367 127.005 114.374C131.829 110.498 139.775 108.891 145.061 106.764C147.686 105.701 149.814 104.378 149.992 102.44C150.133 100.502 148.431 98.3518 144.493 95.4216ZM74.8584 20.63C78.3348 15.3839 86.9904 15.4785 90.4668 20.5355C92.7726 23.8911 91.7439 27.8374 88.9414 30.0823C88.3739 29.8933 86.8485 29.4679 84.4718 28.9244C84.862 28.6409 85.5714 28.2864 85.8552 27.8374C87.558 25.049 85.7843 21.4571 82.6271 21.3862C80.0376 21.268 77.6963 23.9383 78.4412 26.8213C76.9868 26.3487 75.1067 25.9942 73.8297 25.7815C73.4749 24.151 73.7232 22.3314 74.8584 20.63ZM60.4206 17.9125C64.0035 17.9125 67.7992 21.268 67.1961 25.8288C65.9545 26.0651 64.6775 26.4196 63.5778 26.9158C64.0035 24.8127 62.4072 22.166 60.1723 22.2842C57.1925 22.4496 56.6959 27.2939 59.5338 28.9244C59.8885 29.1135 60.2078 28.8772 57.4409 30.2241C51.907 26.774 53.7161 17.9125 60.4206 17.9125ZM55.5962 32.2564C57.7956 31.1694 60.4206 29.8933 60.598 29.7751C62.2653 28.7354 65.3869 26.4196 70.4951 26.4196C73.0138 26.4196 76.029 26.9631 79.6828 28.5227C81.9177 29.4916 83.6913 29.5625 87.6999 30.7204C90.6797 31.5474 92.5598 33.0126 91.4246 35.0212C90.5023 36.699 87.5225 38.424 83.3721 39.2984C79.4345 40.1491 76.3483 43.0793 69.8212 42.8194C68.4377 42.7721 67.338 42.5831 66.4157 42.3231C63.5778 41.496 62.0879 39.8655 59.3209 38.7785C56.2702 37.6442 54.6384 36.3209 54.1063 35.163C53.6097 34.0051 54.1063 33.0362 55.5962 32.2564ZM56.7668 111.183C55.8091 119.478 41.1939 119.312 30.0552 115.437C19.4486 111.703 5.72028 113.901 2.91786 110.262C2.06649 109.151 2.06649 107.261 3.84017 104.023V103.976C4.69154 102.18 4.05302 100.195 3.62733 98.3282C3.20165 96.485 2.98881 94.7836 3.9466 93.6021C5.18817 92.0188 6.96185 91.4516 9.19669 90.9318C12.8505 90.0574 13.3826 90.1283 16.1495 88.5923C18.1006 87.2454 19.5195 85.5439 21.2223 84.3388C23.0314 83.0391 24.7696 82.4247 27.5011 82.7082C30.3745 82.9918 32.8576 84.3151 35.2698 86.4892L42.2227 94.9017C45.5927 99.6043 57.5118 106.339 56.7668 111.183ZM56.2702 105.063C54.8158 103.503 52.8647 101.849 51.162 100.431C53.6806 100.431 56.1993 99.9115 57.0861 98.3282C57.902 96.8631 57.0861 94.8072 54.4611 92.4441C49.6721 88.1433 40.8747 84.7641 40.8747 84.7641C36.0857 82.7791 33.3897 80.3451 32.1481 77.6985C30.9066 75.0518 31.0839 72.1925 32.0417 69.3804C33.8863 63.969 38.6398 58.6993 41.6906 55.391C42.5064 54.9892 41.9743 56.1472 38.6043 60.3062C35.5891 64.1107 29.9488 72.9014 37.682 79.778C37.8949 74.8864 39.6331 69.9003 42.5774 65.245C46.8342 58.7702 55.8091 47.5455 56.5185 38.6131C56.9087 38.8021 58.1503 39.3693 58.7179 39.5819C60.3497 40.22 61.5913 41.1652 63.1876 42.0159C67.5863 44.379 73.2976 44.1899 78.2284 42.2995C80.4278 41.4724 82.2015 40.5272 83.8687 40.1727C87.3806 39.4401 90.183 38.1405 91.7793 36.6281C94.5108 43.8119 100.896 54.1858 104.976 59.2428C107.139 61.9367 111.467 67.6317 113.347 74.5083C114.518 74.4847 115.83 74.6028 117.214 74.8392C122.109 66.4029 113.064 57.3051 108.949 54.7766C107.281 53.6895 107.21 53.2169 108.026 53.2406C112.496 55.8872 118.385 61.2042 120.513 67.1828C121.506 69.9239 121.684 72.7833 120.655 75.619C126.473 77.2259 133.39 79.8489 131.545 83.8425C130.765 83.8189 130.41 83.8425 130.055 83.8425C131.191 81.4558 128.672 79.6835 121.967 77.6749C115.015 75.6426 109.197 75.6426 108.381 80.6287C104.089 81.6212 101.889 84.1024 100.79 87.0799C99.7964 89.7266 99.5126 92.9168 99.2288 96.5086C99.0514 98.3282 97.9518 100.762 96.8166 103.362C85.4296 108.773 69.6083 111.136 56.2702 105.063ZM147.579 102.345C147.26 106.315 132.964 107.048 125.16 113.334C120.478 117.044 114.731 119.1 109.694 119.36C104.656 119.62 100.293 118.225 97.7389 114.799C96.0716 112.176 96.8875 109.34 98.1291 106.221C99.4416 102.865 101.393 99.4152 101.641 96.6268C101.925 93.0349 102.244 89.892 103.131 87.4817C104.053 85.0477 105.472 83.4172 107.991 82.4956C108.097 82.4483 108.239 82.4247 108.346 82.3774C108.629 85.4967 110.935 88.6632 115.015 89.3485C119.484 90.1283 125.905 87.5762 128.636 85.4967C131.829 85.4258 134.206 85.284 136.653 86.7018C140.165 88.7105 139.172 93.862 142.719 96.5323C146.48 99.2735 147.686 101.14 147.579 102.345ZM56.9797 35.1393C57.6892 35.5883 58.647 36.2027 59.8176 36.8171C62.1588 38.0459 65.4224 39.322 69.5019 39.322C73.6168 39.322 77.4835 37.9278 80.7825 36.7699C82.5207 36.1555 84.6491 35.1157 86.0326 34.3123C87.4161 33.5088 88.1255 32.8235 87.1323 32.7526C86.139 32.6817 86.21 33.367 85.0039 33.9578C83.443 34.714 81.5629 35.7065 80.073 36.2736C77.448 37.2661 73.1557 38.684 69.4664 38.684C65.7772 38.684 62.8328 37.5497 60.6335 36.3918C59.5338 35.801 58.6115 35.2102 57.902 34.7612C57.3699 34.4304 57.228 33.6742 56.3766 33.6033C55.88 33.5797 55.7381 34.4777 56.9797 35.1393Z" fill="white"/>
</svg>
